<svg width="19" height="15" viewBox="0 0 19 15" fill="none" xmlns="http://www.w3.org/2000/svg">
<path d="M6.45703 13.8789L0.259766 7.71875C0.0865885 7.54557 0 7.32292 0 7.05078C0 6.77865 0.0865885 6.55599 0.259766 6.38281L1.63281 5.04688C1.80599 4.84896 2.01628 4.75 2.26367 4.75C2.53581 4.75 2.77083 4.84896 2.96875 5.04688L7.125 9.20312L16.0312 0.296875C16.2292 0.0989583 16.4518 0 16.6992 0C16.9714 0 17.194 0.0989583 17.3672 0.296875L18.7402 1.63281C18.9134 1.80599 19 2.02865 19 2.30078C19 2.57292 18.9134 2.79557 18.7402 2.96875L7.79297 13.8789C7.61979 14.0768 7.39714 14.1758 7.125 14.1758C6.85286 14.1758 6.63021 14.0768 6.45703 13.8789Z" fill="#ADDB31"/>
</svg>
