<svg width="18" height="18" viewBox="0 0 18 18" fill="none" xmlns="http://www.w3.org/2000/svg">
<path d="M2.53125 2.56641C4.24219 0.855469 6.30469 0 8.71875 0C11.1328 0 13.1836 0.855469 14.8711 2.56641C16.582 4.25391 17.4375 6.30469 17.4375 8.71875C17.4375 11.1328 16.582 13.1953 14.8711 14.9062C13.1836 16.5938 11.1328 17.4375 8.71875 17.4375C6.30469 17.4375 4.24219 16.5938 2.53125 14.9062C0.84375 13.1953 0 11.1328 0 8.71875C0 6.30469 0.84375 4.25391 2.53125 2.56641ZM10.6875 10.7227C11.25 10.1602 11.5312 9.49219 11.5312 8.71875C11.5312 7.94531 11.25 7.28906 10.6875 6.75C10.1484 6.1875 9.49219 5.90625 8.71875 5.90625C7.94531 5.90625 7.27734 6.1875 6.71484 6.75C6.17578 7.28906 5.90625 7.94531 5.90625 8.71875C5.90625 9.49219 6.17578 10.1602 6.71484 10.7227C7.27734 11.2617 7.94531 11.5312 8.71875 11.5312C9.49219 11.5312 10.1484 11.2617 10.6875 10.7227Z" fill="#FFD40D"/>
</svg>
