<svg width="60" height="60" viewBox="0 0 60 60" fill="none" xmlns="http://www.w3.org/2000/svg">
<rect width="60" height="60" rx="30" fill="#FFD40D"/>
<path d="M49.4952 31.5048L41.3485 23.3581C41.1662 23.1746 40.9492 23.029 40.7101 22.93C40.4711 22.831 40.2147 22.7804 39.956 22.7813H28.6875V24.0938H31.9688V33.9375H33.2812V24.0938H39.956C40.0423 24.0937 40.1277 24.1106 40.2074 24.1436C40.2872 24.1766 40.3596 24.225 40.4206 24.286L41.5408 25.4063H38.5312C38.1832 25.4063 37.8493 25.5445 37.6032 25.7907C37.357 26.0368 37.2188 26.3707 37.2188 26.7188V32.625C37.2188 32.9731 37.357 33.3069 37.6032 33.5531C37.8493 33.7992 38.1832 33.9375 38.5312 33.9375H48.375V39.1875C48.375 39.3616 48.3059 39.5285 48.1828 39.6516C48.0597 39.7746 47.8928 39.8438 47.7188 39.8438H46.3537C46.1968 38.7512 45.6513 37.7518 44.8172 37.0289C43.9831 36.306 42.9163 35.9081 41.8125 35.9081C40.7087 35.9081 39.6419 36.306 38.8078 37.0289C37.9737 37.7518 37.4282 38.7512 37.2713 39.8438H27.9788C27.8218 38.7512 27.2763 37.7518 26.4422 37.0289C25.6081 36.306 24.5413 35.9081 23.4375 35.9081C22.3337 35.9081 21.2669 36.306 20.4328 37.0289C19.5987 37.7518 19.0532 38.7512 18.8962 39.8438H17.5312C17.3572 39.8438 17.1903 39.7746 17.0672 39.6516C16.9441 39.5285 16.875 39.3616 16.875 39.1875V33.2813H15.5625V39.1875C15.5625 39.7097 15.7699 40.2104 16.1391 40.5796C16.5083 40.9488 17.0091 41.1563 17.5312 41.1563H18.8962C19.0395 42.1541 19.508 43.0768 20.2291 43.7813H10.3125V45.0938H41.8125C42.916 45.0917 43.9819 44.6927 44.8156 43.9698C45.6494 43.247 46.1953 42.2483 46.3537 41.1563H47.7188C48.2409 41.1563 48.7417 40.9488 49.1109 40.5796C49.4801 40.2104 49.6875 39.7097 49.6875 39.1875V31.9688C49.6875 31.7947 49.6183 31.6278 49.4952 31.5048ZM20.1562 40.5C20.1562 39.851 20.3487 39.2166 20.7092 38.677C21.0698 38.1374 21.5822 37.7169 22.1818 37.4685C22.7814 37.2202 23.4411 37.1552 24.0776 37.2818C24.7141 37.4084 25.2988 37.7209 25.7577 38.1798C26.2166 38.6387 26.5291 39.2234 26.6557 39.8599C26.7823 40.4964 26.7173 41.1561 26.469 41.7557C26.2206 42.3553 25.8001 42.8677 25.2605 43.2283C24.7209 43.5888 24.0865 43.7813 23.4375 43.7813C22.5676 43.7802 21.7336 43.4342 21.1185 42.8191C20.5033 42.2039 20.1573 41.3699 20.1562 40.5ZM26.6459 43.7813C27.367 43.0768 27.8355 42.1541 27.9788 41.1563H37.2713C37.4145 42.1541 37.883 43.0768 38.6041 43.7813H26.6459ZM41.8125 43.7813C41.1635 43.7813 40.5291 43.5888 39.9895 43.2283C39.4499 42.8677 39.0294 42.3553 38.781 41.7557C38.5327 41.1561 38.4677 40.4964 38.5943 39.8599C38.7209 39.2234 39.0334 38.6387 39.4923 38.1798C39.9512 37.7209 40.5359 37.4084 41.1724 37.2818C41.8089 37.1552 42.4686 37.2202 43.0682 37.4685C43.6678 37.7169 44.1802 38.1374 44.5408 38.677C44.9013 39.2166 45.0938 39.851 45.0938 40.5C45.0927 41.3699 44.7467 42.2039 44.1315 42.8191C43.5164 43.4342 42.6824 43.7802 41.8125 43.7813ZM38.5312 32.625V26.7188H42.8533L48.375 32.2404V32.625H38.5312Z" fill="black"/>
<path d="M24.0938 39.8438H22.7812V41.1562H24.0938V39.8438Z" fill="black"/>
<path d="M42.4688 39.8438H41.1562V41.1562H42.4688V39.8438Z" fill="black"/>
<path d="M13.5938 37.875H10.3125V39.1875H13.5938V37.875Z" fill="black"/>
<path d="M13.5938 35.25H11.625V36.5625H13.5938V35.25Z" fill="black"/>
<path d="M13.5938 32.625H12.2812V33.9375H13.5938V32.625Z" fill="black"/>
<path d="M18.8438 31.9688C20.5311 31.9688 22.1805 31.4684 23.5835 30.531C24.9864 29.5936 26.0799 28.2612 26.7256 26.7023C27.3713 25.1434 27.5403 23.428 27.2111 21.7731C26.8819 20.1182 26.0694 18.5981 24.8763 17.405C23.6831 16.2119 22.163 15.3994 20.5081 15.0702C18.8532 14.741 17.1379 14.9099 15.579 15.5557C14.0201 16.2014 12.6877 17.2948 11.7503 18.6978C10.8128 20.1008 10.3125 21.7502 10.3125 23.4375C10.3151 25.6993 11.2148 27.8678 12.8141 29.4671C14.4135 31.0665 16.5819 31.9661 18.8438 31.9688ZM18.8438 16.2188C20.2715 16.2188 21.6672 16.6421 22.8543 17.4353C24.0414 18.2285 24.9666 19.356 25.513 20.675C26.0594 21.9941 26.2023 23.4455 25.9238 24.8458C25.6453 26.2461 24.9577 27.5324 23.9482 28.5419C22.9386 29.5515 21.6524 30.239 20.2521 30.5175C18.8518 30.7961 17.4003 30.6531 16.0813 30.1068C14.7622 29.5604 13.6348 28.6351 12.8416 27.448C12.0484 26.2609 11.625 24.8652 11.625 23.4375C11.6273 21.5237 12.3885 19.6889 13.7418 18.3356C15.0951 16.9823 16.9299 16.221 18.8438 16.2188Z" fill="black"/>
<path d="M18.8438 29.3438C19.0178 29.3437 19.1847 29.2745 19.3077 29.1515C19.7303 28.7288 23.4375 24.9403 23.4375 22.125C23.4375 20.9067 22.9535 19.7382 22.092 18.8767C21.2305 18.0152 20.0621 17.5312 18.8438 17.5312C17.6254 17.5312 16.457 18.0152 15.5955 18.8767C14.734 19.7382 14.25 20.9067 14.25 22.125C14.25 24.9403 17.9572 28.7288 18.3798 29.1515C18.5028 29.2745 18.6697 29.3437 18.8438 29.3438ZM18.8438 18.8438C19.7137 18.8448 20.5477 19.1908 21.1628 19.806C21.7779 20.4211 22.124 21.2551 22.125 22.125C22.125 23.8089 20.0598 26.411 18.8438 27.7366C17.6277 26.411 15.5625 23.8089 15.5625 22.125C15.5635 21.2551 15.9096 20.4211 16.5247 19.806C17.1398 19.1908 17.9738 18.8448 18.8438 18.8438Z" fill="black"/>
<path d="M20.8125 22.125C20.8125 21.7356 20.697 21.355 20.4807 21.0312C20.2644 20.7075 19.9569 20.4551 19.5972 20.3061C19.2374 20.1571 18.8416 20.1181 18.4597 20.1941C18.0778 20.27 17.727 20.4575 17.4516 20.7329C17.1763 21.0082 16.9888 21.359 16.9128 21.7409C16.8369 22.1228 16.8759 22.5187 17.0249 22.8784C17.1739 23.2382 17.4262 23.5456 17.75 23.762C18.0737 23.9783 18.4544 24.0938 18.8438 24.0938C19.3659 24.0938 19.8667 23.8863 20.2359 23.5171C20.6051 23.1479 20.8125 22.6471 20.8125 22.125ZM18.1875 22.125C18.1875 21.9952 18.226 21.8683 18.2981 21.7604C18.3702 21.6525 18.4727 21.5684 18.5926 21.5187C18.7125 21.469 18.8445 21.456 18.9718 21.4814C19.0991 21.5067 19.216 21.5692 19.3078 21.661C19.3996 21.7527 19.4621 21.8697 19.4874 21.997C19.5127 22.1243 19.4997 22.2562 19.45 22.3761C19.4004 22.4961 19.3163 22.5985 19.2083 22.6707C19.1004 22.7428 18.9735 22.7813 18.8438 22.7813C18.6697 22.7813 18.5028 22.7121 18.3797 22.589C18.2566 22.466 18.1875 22.299 18.1875 22.125Z" fill="black"/>
<path d="M37.875 35.25H35.25V36.5625H37.875V35.25Z" fill="black"/>
</svg>
