<svg width="16" height="16" viewBox="0 0 16 16" fill="none" xmlns="http://www.w3.org/2000/svg">
<path d="M7.11914 0.527344C7.29492 0.175781 7.57812 0 7.96875 0C8.35938 0 8.64258 0.175781 8.81836 0.527344L10.7227 4.39453L15 5.03906C15.3906 5.07812 15.6445 5.2832 15.7617 5.6543C15.8789 6.02539 15.8008 6.34766 15.5273 6.62109L12.4219 9.63867L13.1543 13.916C13.2129 14.2871 13.0859 14.5801 12.7734 14.7949C12.4609 15.0293 12.1387 15.0586 11.8066 14.8828L7.96875 12.8906L4.13086 14.8828C3.79883 15.0781 3.47656 15.0586 3.16406 14.8242C2.85156 14.5898 2.72461 14.2871 2.7832 13.916L3.51562 9.63867L0.410156 6.62109C0.136719 6.34766 0.0585938 6.02539 0.175781 5.6543C0.292969 5.2832 0.546875 5.07812 0.9375 5.03906L5.21484 4.39453L7.11914 0.527344Z" fill="#FFD40D"/>
</svg>
