<svg width="17" height="17" viewBox="0 0 17 17" fill="none" xmlns="http://www.w3.org/2000/svg">
<path d="M7.59375 0.5625C7.78125 0.1875 8.08333 0 8.5 0C8.91667 0 9.21875 0.1875 9.40625 0.5625L11.4375 4.6875L16 5.375C16.4167 5.41667 16.6875 5.63542 16.8125 6.03125C16.9375 6.42708 16.8542 6.77083 16.5625 7.0625L13.25 10.2812L14.0312 14.8438C14.0938 15.2396 13.9583 15.5521 13.625 15.7812C13.2917 16.0312 12.9479 16.0625 12.5938 15.875L8.5 13.75L4.40625 15.875C4.05208 16.0833 3.70833 16.0625 3.375 15.8125C3.04167 15.5625 2.90625 15.2396 2.96875 14.8438L3.75 10.2812L0.4375 7.0625C0.145833 6.77083 0.0625 6.42708 0.1875 6.03125C0.3125 5.63542 0.583333 5.41667 1 5.375L5.5625 4.6875L7.59375 0.5625Z" fill="#F3274C"/>
</svg>
